<svg id="Layer_1" data-name="Layer 1" xmlns="http://www.w3.org/2000/svg" xmlns:xlink="http://www.w3.org/1999/xlink" viewBox="0 0 500 500"><defs><linearGradient id="linear-gradient" x1="249.85" y1="391.36" x2="249.85" y2="337.61" gradientUnits="userSpaceOnUse"><stop offset="0" stop-color="#161315"/><stop offset="0.4" stop-color="#191619"/><stop offset="0.84" stop-color="#222027"/><stop offset="0.99" stop-color="#26252d"/></linearGradient></defs><path d="M496,299.2c-4.33-8-12.05-14.38-20.58-19.41.65-5.5,0-15.6-10-25.4l-.58-.86-2.6-2q-1.82-1.49-3.86-3l-1.07-.78c-1-.71-2-1.41-2.93-2.08a32.6,32.6,0,0,0-.86-3.26,29.09,29.09,0,0,0-1.67-4.08c.19-.48.4-1,.61-1.57a307.5,307.5,0,0,0,14.49-43.32c14.66-56.77,8.42-122.8-15.17-160.58C438.93,12.32,424.15,5.54,414,3.47c-42.48-8.68-93,56.89-114.1,111.66-12.43-1-24.79-1.68-36.89-2h-.28c-9.13-.2-17-.2-26.07,0-11.31.27-22.85.86-34.49,1.77a256.52,256.52,0,0,0-43.27-72.83C141.32,21.48,114.75-2,88.13,3.47,78,5.54,63.22,12.32,50.38,32.86,26.79,70.64,20.55,136.68,35.21,193.45A311.34,311.34,0,0,0,49.4,236.08a30.9,30.9,0,0,0-3.76,9.59c-3.06,2.09-5.81,4.17-8.3,6.25-12.24,10.21-13.46,21.17-12.7,27.86-8.53,5-16.26,11.44-20.59,19.42a32.06,32.06,0,0,0-2.46,25.53c3.81,11.58,13.56,22.09,30.61,32.94l.54.55c-1,6.12-.87,18.64,14.17,28.87Q49,388.5,51.61,390l.55.4c17.54,12.59,62.7,45,127.63,61.12,16.61,28.89,42.4,45.81,70.65,45.81h0c28.77,0,54.47-17.39,70.39-47.06,62.37-17.66,116.53-52.47,132.28-63.18a43.69,43.69,0,0,0,5.21-4.14c7.82-7.35,9.39-15.27,9.34-20.57a25.35,25.35,0,0,0-.41-4.36l.5-.32,0,0c15.14-9.62,24.4-18.87,29-29a38.84,38.84,0,0,0,1.57-4A32,32,0,0,0,496,299.2Z" fill="#26252d"/><path d="M445.47,187.9c-20.69,80.1-62.74,123.5-103.94,94.56-34.43-24.19-43-90.4-24.64-148.8C334.42,77.8,383.67,19.89,409.58,25.18,442.5,31.9,465,112.42,445.47,187.9Z" fill="#fff"/><path d="M424.18,244.59c-31.27,56.63-42.37,26.38-77.11,4.12-29.81-19.1-39.6-45-26.42-99C333.08,98.76,389,26.92,405.86,28.81c18.69,2.1,39.18,49.63,37.91,106.05-.56,25.24-2.14,65.83-12.65,95.38A94.55,94.55,0,0,1,424.18,244.59Z" fill="#c0a8d0"/><path d="M395.82,201.54s-15.43-40.79-40.08-27.2c0,0,1.3-13.87-10.81-9,0,0,19.72-7.13,21.7-18.25S354,138,354,138s33.19-20.47,30.91-37.07c-2.11-15.39-21.55-6.7-21.55-6.7S375,86.67,378.92,76.18c4.23-11.31-4.63-15.55-4.63-15.55s23.89-27.82,29.47-26.7c4.29.85,28.62,30,30.18,84.74a34.92,34.92,0,0,0-13.1,14.7c-4.69,10-3.13,35.93-3.13,35.93s-12-14.14-18.56,2.38C395.18,181.68,395.82,201.54,395.82,201.54Z" fill="#6a4299"/><path d="M429.88,233.41s-9.63-17.43-11-30.2c-1.6-14.79,3.1-26.44,11.94-22.37,0,0-6-15.51,2.72-27.79,12.25-17.19,10.25-27.61,10.25-27.61s7.06,42.42-5.33,83.35C433.12,226.43,429.88,233.41,429.88,233.41Z" fill="#fff"/><path d="M369,285.48c0,83-53.34,134.8-119.14,134.8s-119.14-51.79-119.14-134.8,53.34-150.31,119.14-150.31S369,202.47,369,285.48Z" fill="#948a8f"/><path d="M359.46,226.49s63.54,21.19,89,42.44c16.41,13.69-13.36,18.4-13.36,18.4s48.09,12.7,42.25,30.47c-5.74,17.47-49.53,35.89-49.53,35.89s28.88,4.16,12.84,15.07-105.88,70-190.82,70Z" fill="#c0a8d0"/><path d="M56.67,187.9c20.69,80.1,62.74,123.5,103.94,94.56,34.43-24.19,43-90.4,24.64-148.8C167.72,77.8,118.47,19.89,92.56,25.18,59.64,31.9,37.18,112.42,56.67,187.9Z" fill="#fff"/><path d="M78,244.59c31.27,56.63,42.37,26.38,77.11,4.12,29.81-19.1,39.61-45,26.42-99C169.06,98.76,113.1,26.92,96.28,28.81,77.59,30.91,57.1,78.44,58.37,134.86c.56,25.24,2.14,65.83,12.65,95.38A94.55,94.55,0,0,0,78,244.59Z" fill="#c0a8d0"/><path d="M106.32,201.54s15.43-40.79,40.08-27.2c0,0-1.3-13.87,10.81-9,0,0-19.72-7.13-21.7-18.25s12.6-9.1,12.6-9.1-33.18-20.47-30.91-37.07c2.11-15.39,21.55-6.7,21.55-6.7s-11.61-7.57-15.53-18.06c-4.23-11.31,4.63-15.55,4.63-15.55S104,32.81,98.38,33.93c-4.29.85-28.62,30-30.18,84.74a34.92,34.92,0,0,1,13.1,14.7c4.69,10,3.13,35.93,3.13,35.93s12-14.14,18.56,2.38C107,181.68,106.32,201.54,106.32,201.54Z" fill="#6a4299"/><path d="M72.26,233.41s9.63-17.43,11-30.2c1.6-14.79-3.09-26.44-11.94-22.37,0,0,6-15.51-2.72-27.79-12.25-17.19-10.25-27.61-10.25-27.61s-7.06,42.42,5.33,83.35C69,226.43,72.26,233.41,72.26,233.41Z" fill="#fff"/><path d="M344.9,344.76H154.8V142.89a589,589,0,0,1,190.1,0Z" fill="#c0a8d0"/><path d="M435.1,287.33s29.77-4.71,13.36-18.4a120.57,120.57,0,0,0-17.19-11.54h0C440,240.5,408.84,238,408.84,238c-21.61-36.7-79.71-93.18-118.48-63.63,0,0,5.44-9-1.6-10.42-20.89-4.29-38.91,38.46-38.91,38.46V294s25.5,10.71,52.34,24.21c23,11.56,47,25.17,56.77,35.84,14,15.29,51.19,12,86.19,7-2.54-5.21-17.32-7.34-17.32-7.34s43.79-18.42,49.53-35.89C483.19,300,435.1,287.33,435.1,287.33Z" fill="#fff"/><path d="M141.17,226.49s-63.54,21.19-89,42.44c-16.41,13.69,13.36,18.4,13.36,18.4S17.44,300,23.28,317.8c5.74,17.47,49.53,35.89,49.53,35.89S43.92,357.85,60,368.76s86,67.77,190.82,70Z" fill="#c0a8d0"/><path d="M64.9,287.33s-29.77-4.71-13.36-18.4a120.57,120.57,0,0,1,17.19-11.54h0C60,240.5,91.16,238,91.16,238c21.61-36.7,79.71-93.18,118.48-63.63,0,0-5.44-9,1.6-10.42,20.89-4.29,38.91,38.46,38.91,38.46V294s-25.5,10.71-52.34,24.21c-23,11.56-47,25.17-56.77,35.84-14,15.29-68.87-.35-68.87-.35S28.39,335.27,22.65,317.8C16.81,300,64.9,287.33,64.9,287.33Z" fill="#fff"/><path d="M72.2,353.69a198,198,0,0,1-26.1-13.47h0C32.25,330.44,114.59,217.71,183.62,225c38.7,4.11,52,76.34,52,76.34-7.07,8.2-18.21,22.21-24.9,37.37-12.42,28.16-35.25,23.14-53.67,29.48-44.61,28.58-87.56,7.4-97.64.54C43.34,357.85,72.2,353.69,72.2,353.69Z" fill="#6a4299"/><path d="M427.82,353.69a203.2,203.2,0,0,0,26.08-13.47h0c13.84-9.77-68.49-122.51-137.52-115.19-38.7,4.11-52,76.34-52,76.34,7.07,8.2,18.21,22.21,24.9,37.37,12.42,28.16,35.25,23.14,53.67,29.48,44.61,28.58,87.61,7.4,97.69.54C456.7,357.85,427.82,353.69,427.82,353.69Z" fill="#6a4299"/><path d="M343,368.22s-12.19,61.12-93.12,61.12-93.12-61.12-93.12-61.12,41.69-70.09,93.12-70.09S343,368.22,343,368.22Z" fill="#fff"/><path d="M248.92,448c50.75,0,57.56-35.59,57.56-35.59l-57.15-11-54.45,11S198.18,448,248.92,448Z" fill="#e23930"/><path d="M293.87,422.18a94.66,94.66,0,0,1-13.75,12.07c-.55-3.38-3.59-6.35-7.14-6.19a7.38,7.38,0,0,0-7.25,7.25V442a45.54,45.54,0,0,1-20.06,2.83A48.91,48.91,0,0,1,234,442.32v-7c0-3.79-3.33-7.43-7.25-7.25a7.38,7.38,0,0,0-7.19,6.7,75.48,75.48,0,0,1-14.17-13.28c-6-7.18-16.18,3.13-10.25,10.25C216.55,457.52,245.85,464,272.41,454c.19,0,.38.05.57.05a7.74,7.74,0,0,0,5.47-2.61,87.85,87.85,0,0,0,25.68-19C310.55,425.67,300.32,415.4,293.87,422.18Z" fill="#fff"/><path d="M189.27,417.5c7.93,27.74,29.66,57.67,61.18,57.66s52.53-30,59.64-57.79c2.31-9.05-11.67-12.91-14-3.86-5.45,21.34-21,47.13-45.65,47.15s-41.09-25.66-47.19-47c-2.56-9-16.56-5.15-14,3.85Z" fill="#fff"/><path d="M274.16,279.09,262.5,135.33q-6.21-.15-12.65-.16h0v0q-6.43,0-12.65.16L225.53,279.09l10.36,60,8.51.61v.17l1.46-.06,4,.29v-.45l14-.56Z" fill="#6a4299"/><path d="M314.07,400.82c-23.68,7.45-41.63-7.81-65.07-6.62-22.29,1.13-37.64,16.44-60.56,8.46-8.84-3.07-12.63,10.93-3.86,14a67.66,67.66,0,0,0,12.34,3.12,8,8,0,0,0,.07.83c4.75,27,27.72,47.82,55.52,46.77,27.12-1,46.93-23.77,51.31-49.53a73.33,73.33,0,0,0,14.1-3C326.8,412,323,398,314.07,400.82Zm-61.56,52c-20.72,1-36.28-13.95-40.89-33.11,1.2-.19,2.4-.42,3.61-.72,11.21-2.78,21-9.1,32.65-10.17,13.13-1.2,23.8,4.4,36.1,7.6,1.73.45,3.44.78,5.15,1.05C284.91,435.44,272.15,451.88,252.51,452.86Z" fill="#26252d"/><path d="M284.25,358.82c0,18-15.4,32.54-34.4,32.54s-34.4-14.57-34.4-32.54,15.4-21.21,34.4-21.21S284.25,340.84,284.25,358.82Z" fill="url(#linear-gradient)"/><path d="M282.94,367.71a12.35,12.35,0,1,0-13.22,17.67A32.65,32.65,0,0,0,282.94,367.71Z" fill="#181415"/><path d="M240.16,373.23a12.35,12.35,0,0,0-23.4-5.52A32.7,32.7,0,0,0,230,385.38,12.35,12.35,0,0,0,240.16,373.23Z" fill="#181415"/><circle cx="161.97" cy="285.9" r="23.88" fill="#26252d"/><path d="M162,277c0,5.45-3.9,9.87-8.71,9.87s-8.7-4.42-8.7-9.87,3.9-9.86,8.7-9.86S162,271.52,162,277Z" fill="#fff"/><path d="M176.2,299.28c.62,1-.47,2.8-2.43,4s-4.06,1.37-4.67.36.47-2.8,2.43-4S175.59,298.28,176.2,299.28Z" fill="#fff"/><circle cx="337.73" cy="285.9" r="23.88" fill="#26252d"/><path d="M337.74,277c0,5.45-3.9,9.87-8.71,9.87s-8.71-4.42-8.71-9.87,3.9-9.86,8.71-9.86S337.74,271.52,337.74,277Z" fill="#fff"/><path d="M352,299.28c.62,1-.47,2.8-2.44,4s-4,1.37-4.67.36.48-2.8,2.44-4S351.34,298.28,352,299.28Z" fill="#fff"/><polygon points="431.27 257.39 431.26 257.39 431.27 257.39 431.27 257.39" fill="gray"/><path d="M316.92,133.6s-7.4,14.62.64,16.13c6.73,1.27,28.26-6,28.15-9.76s-6.16-7.14-10.79-6.76c0,0,17.08-5.58,20.1-20C357,104,349.91,97.9,349.91,97.9S368.52,86.2,366.08,74c-2.13-10.65,7.59-20.85,7.59-20.85C355.8,70.24,330.5,105.35,316.92,133.6Z" fill="#fff"/><path d="M185.22,133.6s7.4,14.62-.64,16.13c-6.73,1.27-28.26-6-28.15-9.76s6.16-7.14,10.79-6.76c0,0-17.08-5.58-20.1-20-1.94-9.26,5.11-15.33,5.11-15.33S133.62,86.2,136.06,74c2.13-10.65-7.59-20.85-7.59-20.85C146.34,70.24,171.64,105.35,185.22,133.6Z" fill="#fff"/><path d="M315.82,199.88c9.75-9.3,25.49-1.49,31.26,8.55,4.95,8.61,18.29.85,13.32-7.79-10.89-18.95-38.47-27.91-55.49-11.67-7.19,6.87,3.73,17.77,10.91,10.91Z" fill="#26252d"/><path d="M194.79,189c-17-16.24-44.6-7.28-55.49,11.67-5,8.63,8.37,16.41,13.32,7.79,5.77-10,21.52-17.85,31.26-8.55,7.18,6.86,18.11-4,10.91-10.91Z" fill="#26252d"/></svg>